<svg width="27" height="24" viewBox="0 0 27 24" fill="none" xmlns="http://www.w3.org/2000/svg">
  <path
    d="M19.1229 24C18.0455 24 16.9764 23.5153 16.0875 22.6177C14.7679 21.3237 14.0358 19.5409 14.0248 17.5992C14.0179 16.308 14.3523 15.0748 14.9454 14.1302C14.4596 14.0557 13.945 14.0142 13.4015 14.0142H13.2983C12.7547 14.0142 12.2401 14.0543 11.7558 14.1289C12.3461 15.0707 12.6818 16.3053 12.6749 17.5978C12.6653 19.5395 11.9319 21.3209 10.6123 22.6163C9.6573 23.5802 8.49322 24.0691 7.33599 23.9903C6.32324 23.9227 5.40819 23.4117 4.76008 22.5555C3.69367 21.1911 3.61936 19.2136 4.56056 17.2664C5.25682 15.8274 6.57918 14.3305 8.5345 13.361C7.82585 12.8708 7.13922 12.5532 6.38929 12.2079C5.15362 11.6376 3.75421 10.9913 2.00942 9.44875C-0.222477 7.4643 -0.676563 3.78817 1.0586 1.73881C1.98878 0.635421 3.47763 -0.012253 5.02565 0.00017568C6.62596 0.0153663 8.1272 0.73485 9.1454 1.97772C9.3615 2.22353 11.5356 4.76727 12.4782 8.51798C12.5772 8.91432 12.3309 9.31342 11.9319 9.39351L11.5342 9.47361C11.2246 9.53575 10.9246 9.33966 10.8503 9.0317C9.9958 5.53924 7.88364 3.12669 7.86162 3.10183L7.83686 3.07283C7.12958 2.2042 6.12509 1.71948 5.01052 1.70981C3.96337 1.70153 2.96576 2.1241 2.35756 2.84359C1.22922 4.1776 1.61863 6.81387 3.14051 8.16722C4.69541 9.54266 5.92006 10.1075 7.10344 10.6543C8.15334 11.1391 9.2335 11.6376 10.4141 12.6623C11.2865 12.4344 12.2484 12.3046 13.2983 12.3046H13.4015C14.4527 12.3046 15.4132 12.4344 16.2856 12.6623C17.4635 11.639 18.545 11.1404 19.5963 10.6543C20.7797 10.1075 22.0043 9.54266 23.5606 8.16583C25.0825 6.81387 25.4705 4.1776 24.3422 2.84359C23.7409 2.13101 22.7639 1.70981 21.7236 1.70981C21.7126 1.70981 21.7002 1.70981 21.6892 1.70981C20.5733 1.71948 19.5702 2.2042 18.8629 3.07283L18.8381 3.10183C18.8161 3.12669 16.7039 5.53924 15.8508 9.03032C15.7751 9.33828 15.4751 9.53299 15.1669 9.47223L14.7692 9.39213C14.3702 9.31204 14.1225 8.91294 14.223 8.5166C15.1669 4.76589 17.3396 2.22215 17.5557 1.97634C18.5753 0.73485 20.0752 0.0153663 21.6755 0.00017568C23.2235 -0.0108721 24.7123 0.635421 25.6439 1.73881C27.3777 3.78955 26.9236 7.4643 24.6903 9.44875C22.9441 10.9927 21.5447 11.639 20.3091 12.2093C19.5591 12.5559 18.8711 12.8722 18.1639 13.3624C20.1192 14.3305 21.4429 15.8288 22.1378 17.2678C23.079 19.215 23.0047 21.1925 21.9383 22.5569C21.2902 23.4145 20.3751 23.924 19.3624 23.9917C19.2826 23.9972 19.2014 24 19.1216 24H19.1229ZM16.7287 14.5984C16.093 15.2709 15.7242 16.3798 15.7311 17.5896C15.7352 18.4485 15.943 20.085 17.2846 21.3969L17.2942 21.4065C17.8969 22.0169 18.5946 22.329 19.2509 22.2835C19.7738 22.2489 20.2361 21.9838 20.587 21.517L20.598 21.5032C21.2461 20.6774 21.2503 19.3392 20.6077 18.0121C19.9775 16.7099 18.6909 15.3469 16.7301 14.597L16.7287 14.5984ZM9.9738 14.5984C8.01299 15.3482 6.72641 16.7113 6.09619 18.0135C5.45359 19.3406 5.45772 20.6788 6.10583 21.5046L6.11684 21.5184C6.46772 21.9852 6.93006 22.2503 7.45295 22.2848C8.11068 22.329 8.80695 22.0183 9.4096 21.4079L9.4193 21.3983C10.7595 20.0863 10.9673 18.4499 10.9728 17.5909C10.9797 16.3757 10.6068 15.2626 9.9752 14.5998L9.9738 14.5984Z"
    fill="#FF692D" />
</svg>